<svg width="237" height="80" viewBox="0 0 237 80" fill="none" xmlns="http://www.w3.org/2000/svg">
<path d="M0.861974 79.6987C0.861974 79.1469 0.861974 78.7574 0.861974 78.3678C0.861974 58.8913 0.861972 39.4147 0.832031 19.9706C0.832031 18.8345 1.13144 18.4449 2.14944 18.2826C12.5389 16.5622 22.9285 14.7444 33.318 12.9915C42.8991 11.3684 52.4802 9.81032 62.0613 8.18727C71.6424 6.56422 81.2235 4.94117 90.8046 3.31813C96.4035 2.37676 102.003 1.43539 107.631 0.494025C108.41 0.364182 109.218 0.364184 109.997 0.364184C114.159 0.364184 118.32 0.201876 122.482 0.396642C125.806 0.558946 129.099 1.11078 132.393 1.63016C138.56 2.60399 144.698 3.6752 150.866 4.71395C157.004 5.7527 163.112 6.79145 169.25 7.8302C175.867 8.93387 182.484 10.07 189.101 11.1737C195.179 12.2124 201.287 13.2187 207.365 14.2575C213.952 15.3611 220.539 16.4648 227.096 17.6009C229.761 18.0554 232.425 18.5748 235.12 18.9643C236.078 19.0941 236.168 19.5486 236.168 20.425C236.138 28.6701 236.168 36.8827 236.168 45.1278C236.168 56.0996 236.168 67.1039 236.168 78.0757C236.168 79.6338 236.168 79.6663 234.731 79.6663C212.604 79.6663 190.448 79.6663 168.322 79.6663C112.991 79.6663 57.66 79.6663 2.29914 79.6663C1.85003 79.6987 1.43085 79.6987 0.861974 79.6987ZM118.53 77.3291C156.495 77.3291 194.46 77.3291 232.395 77.3291C233.862 77.3291 233.862 77.3291 233.862 75.771C233.862 58.1122 233.862 40.4859 233.862 22.8272C233.862 21.2041 233.862 21.2041 232.335 20.9444C227.126 20.068 221.916 19.1915 216.706 18.3151C209.67 17.114 202.634 15.913 195.598 14.7119C187.783 13.381 179.969 12.0826 172.124 10.7841C165.477 9.68047 158.83 8.51188 152.184 7.40821C145.207 6.23961 138.231 5.07102 131.285 3.86997C127.333 3.18829 123.41 2.5066 119.398 2.66891C116.135 2.79875 112.871 2.70137 109.578 2.70137C109.218 2.70137 108.859 2.70137 108.5 2.73383C103.38 3.57782 98.2599 4.45426 93.14 5.29825C83.5589 6.92129 73.9778 8.54434 64.3967 10.1674C54.8156 11.7904 45.2345 13.3486 35.6534 14.9716C25.2339 16.7245 14.8145 18.5099 4.39501 20.2627C3.01772 20.49 3.01772 20.49 3.01772 21.9832C3.01772 39.8691 3.01772 57.7876 3.01772 75.6736C3.01772 77.2966 3.01772 77.2966 4.54471 77.2966C42.5398 77.3291 80.5348 77.3291 118.53 77.3291Z" fill="#FC4236"/>
<path d="M230.12 24.7748C230.12 40.8754 230.12 56.8462 230.12 72.9468C229.671 72.9793 229.281 73.0118 228.922 73.0118C155.327 73.0118 81.7024 73.0118 8.1076 73.0118C6.79019 73.0118 6.7902 73.0118 6.7902 71.6159C6.7902 56.2294 6.79019 40.843 6.76025 25.4565C6.76025 24.4502 6.99978 24.0607 7.98783 23.8984C16.5809 22.4701 25.1739 20.9444 33.767 19.4837C42.7193 17.958 51.6717 16.4323 60.624 14.9067C70.4147 13.2187 80.2353 11.5307 90.026 9.84276C96.2837 8.77155 102.541 7.70034 108.799 6.62913C109.128 6.56421 109.458 6.59667 109.787 6.59667C112.661 6.59667 115.536 6.72651 118.41 6.56421C122.991 6.33698 127.482 7.14851 131.973 7.92757C139.668 9.29093 147.333 10.5894 155.028 11.9203C162.753 13.2512 170.447 14.5821 178.172 15.913C185.089 17.114 191.975 18.2826 198.891 19.4837C206.556 20.8146 214.191 22.1455 221.856 23.4439C224.581 23.801 227.305 24.2879 230.12 24.7748ZM101.284 58.4693C102.571 58.4693 103.769 58.4043 104.937 58.5017C105.955 58.5991 106.194 58.1771 106.194 57.1059C106.164 47.3027 106.104 37.4995 106.224 27.6963C106.254 25.5214 105.655 23.9957 104.128 22.7947C103.829 22.5675 103.35 22.4052 103.02 22.4376C100.445 22.8271 97.8706 23.2816 95.2956 23.7036C93.3195 24.0282 91.9423 25.7162 91.9423 27.8911C91.9423 37.5969 91.9423 47.2702 91.9423 56.9761C91.9423 57.4305 92.0021 57.885 92.0321 58.4043C93.3794 58.4043 94.6369 58.3394 95.8645 58.4368C96.6729 58.4693 96.8825 58.1446 96.8825 57.3331C96.8526 53.4378 96.8825 49.5425 96.8825 45.6472C96.8825 44.933 96.8825 44.2189 96.8825 43.4074C98.3796 43.1477 99.7868 42.9205 101.314 42.6608C101.284 48.0493 101.284 53.1781 101.284 58.4693ZM152.633 58.4693C153.98 58.4693 155.148 58.3719 156.285 58.5017C157.333 58.5991 157.543 58.1446 157.543 57.1059C157.513 47.465 157.513 37.8566 157.513 28.2157C157.513 27.956 157.573 27.6963 157.483 27.4691C157.393 27.2418 157.214 26.9172 157.034 26.8848C155.627 26.5926 154.189 26.3654 152.603 26.1057C152.603 30.845 152.603 35.422 152.603 40.1288C151.435 39.9341 150.417 39.7068 149.429 39.6095C148.441 39.5121 148.141 39.0901 148.171 37.9864C148.231 34.1236 148.201 30.2607 148.171 26.3978C148.171 26.0083 147.962 25.3591 147.752 25.2942C146.315 24.9371 144.848 24.7423 143.291 24.4502C143.261 25.1319 143.231 25.6188 143.231 26.1057C143.231 36.3309 143.231 46.5886 143.231 56.8138C143.231 57.1059 143.261 57.398 143.231 57.6577C143.201 58.242 143.441 58.4693 144.01 58.4693C144.968 58.4368 145.926 58.4693 146.884 58.4693C148.201 58.4693 148.201 58.4693 148.201 56.9761C148.201 53.3729 148.201 49.7373 148.201 46.1341C148.201 45.7446 148.231 45.3875 148.261 44.933C149.489 45.1603 150.567 45.42 151.704 45.5173C152.483 45.5823 152.692 45.9718 152.662 46.7509C152.633 49.997 152.662 53.2755 152.662 56.5216C152.633 57.1384 152.633 57.7227 152.633 58.4693ZM177.543 46.621C178.861 46.8482 179.969 47.1079 181.106 47.2702C181.765 47.3676 181.975 47.6922 181.975 48.4064C181.945 50.8734 181.975 53.3404 181.975 55.8075C181.975 56.6514 181.975 57.4954 181.975 58.4693C183.532 58.4693 184.939 58.5017 186.346 58.4368C186.526 58.4368 186.855 57.9174 186.855 57.6577C186.885 49.7048 186.885 41.7843 186.885 33.8314C186.885 32.6628 185.328 30.7801 184.28 30.6178C182.364 30.2932 180.448 29.9036 178.531 29.6115C176.795 29.3518 175.028 28.5403 173.531 30.5204C172.992 31.267 172.603 31.8513 172.603 32.8251C172.633 40.2262 172.633 47.6273 172.633 55.0284C172.633 55.9373 172.633 56.8138 172.633 57.7227C172.633 58.242 172.783 58.5342 173.322 58.5017C174.519 58.4693 175.687 58.4693 176.885 58.5017C177.394 58.5017 177.603 58.2745 177.573 57.7551C177.543 56.7488 177.573 55.7425 177.573 54.7362C177.543 52.0744 177.543 49.4451 177.543 46.621ZM45.3242 58.4693C46.6416 58.4693 47.7794 58.4693 48.9471 58.4693C50.2645 58.4693 50.2645 58.4693 50.2645 57.1059C50.2645 48.731 50.2645 40.3561 50.2645 31.9811C50.2645 31.5591 50.2345 31.1371 50.2046 30.5853C48.9171 30.8125 47.7794 31.1047 46.6117 31.2021C45.5038 31.267 45.2643 31.8188 45.2943 32.89C45.3541 36.2984 45.3242 39.6744 45.2943 43.0828C45.2943 43.4398 45.0248 44.0566 44.7853 44.1215C43.5577 44.4137 42.3301 44.576 40.8929 44.8032C40.8929 40.5833 40.8929 36.4607 40.8929 32.2408C39.4857 32.468 38.2881 32.6953 37.0904 32.8576C36.1922 32.955 35.9227 33.377 35.9227 34.3832C35.9527 41.9791 35.9527 49.5425 35.9527 57.1384C35.9527 57.3656 35.8928 57.6253 35.9826 57.7876C36.1323 58.0797 36.3719 58.4693 36.6114 58.4693C37.9887 58.5342 39.3659 58.5017 40.863 58.5017C40.8929 57.9823 40.9528 57.5928 40.9528 57.1708C40.9528 55.1907 40.9229 53.243 40.9828 51.2629C40.9828 50.9059 41.1923 50.2891 41.4019 50.2566C42.6595 49.9645 43.9469 49.8022 45.3841 49.575C45.3242 52.5938 45.3242 55.4504 45.3242 58.4693ZM59.5761 53.2106C59.5761 51.0032 59.5462 48.9257 59.606 46.8482C59.606 46.621 60.0252 46.2639 60.2947 46.2315C61.5821 45.9718 62.8995 45.8095 64.2169 45.5823C64.4565 45.5498 64.8158 45.2577 64.8158 45.0629C64.8756 43.4723 64.8457 41.8817 64.8457 40.1613C63.0193 40.3885 61.3426 40.5833 59.606 40.8105C59.606 38.9602 59.636 37.2723 59.606 35.5843C59.606 34.9351 59.7557 34.6429 60.3845 34.5455C62.3007 34.2534 64.2169 33.8963 66.1332 33.5068C66.4924 33.4419 67.0314 33.0848 67.0613 32.8251C67.1511 31.267 67.0913 29.7089 67.0913 28.0534C66.6422 28.0858 66.3128 28.0534 66.0134 28.1183C62.6301 28.7026 59.2467 29.3518 55.8634 29.8387C54.8155 30.001 54.6358 30.5204 54.6358 31.5267C54.6658 38.5058 54.6658 45.4849 54.6658 52.464C54.6658 54.087 54.6957 55.6776 54.6658 57.3007C54.6358 58.1447 54.8454 58.5017 55.7137 58.5017C59.2168 58.4693 62.7199 58.4693 66.223 58.5342C66.9116 58.5342 67.1811 58.307 67.1511 57.5604C67.1212 56.5216 67.0913 55.4828 67.1511 54.4441C67.211 53.5027 66.9116 53.1781 66.0433 53.2106C63.9175 53.243 61.8516 53.2106 59.5761 53.2106ZM138.68 29.1246C138.68 27.6314 138.65 26.268 138.68 24.9371C138.71 24.0931 138.381 23.8334 137.662 23.736C136.165 23.5413 134.638 23.379 133.171 22.957C131.105 22.3727 129.338 22.5999 127.752 24.2879C127.213 24.8397 126.883 25.3266 126.883 26.1706C126.913 35.1623 126.973 44.1215 126.853 53.1132C126.823 55.2881 127.422 56.8138 128.949 58.0473C129.219 58.2745 129.578 58.4693 129.907 58.4693C132.542 58.5017 135.177 58.4693 137.842 58.5017C138.53 58.5017 138.68 58.2096 138.68 57.5604C138.65 56.4567 138.65 55.353 138.68 54.2493C138.71 53.4053 138.381 53.2106 137.692 53.243C136.135 53.2755 134.578 53.1781 133.051 53.2755C132.123 53.3404 131.883 52.9509 131.883 52.0095C131.913 46.2639 131.913 40.4859 131.943 34.7403C131.943 32.6628 131.943 30.6178 131.943 28.4104C134.219 28.6052 136.375 28.8649 138.68 29.1246ZM80.7144 53.2106C80.6246 52.9509 80.5946 52.886 80.5946 52.8211C80.5946 45.9069 80.5946 39.0252 80.5647 32.111C80.5647 31.3968 80.9539 31.2994 81.433 31.2021C83.4091 30.7801 85.3852 30.3581 87.3313 29.9036C87.6008 29.8387 88.02 29.5466 88.02 29.3518C88.0799 27.7937 88.0499 26.2355 88.0499 24.6125C87.5409 24.645 87.2116 24.6774 86.8822 24.7099C84.2175 25.1643 81.5527 25.6837 78.888 26.1382C77.0017 26.4628 75.5646 28.2157 75.5646 30.2932C75.5646 37.9215 75.6544 45.5498 75.5047 53.1457C75.4747 55.353 76.1334 56.8462 77.6305 58.0473C77.87 58.242 78.1994 58.4368 78.4988 58.4693C81.1935 58.5017 83.9181 58.4693 86.6128 58.5017C87.1218 58.5017 87.3313 58.307 87.3014 57.7551C87.2715 56.6514 87.2415 55.5478 87.3014 54.4441C87.3613 53.5027 87.0619 53.1781 86.1936 53.2106C84.4271 53.243 82.5707 53.2106 80.7144 53.2106ZM114.128 26.8523C114.158 27.3392 114.188 27.7287 114.188 28.1183C114.188 34.3183 114.188 40.4859 114.188 46.6859C114.188 50.2566 114.218 53.8273 114.188 57.4305C114.188 58.242 114.428 58.5017 115.146 58.4693C116.045 58.4043 116.943 58.4043 117.811 58.4693C118.799 58.5666 119.099 58.242 119.099 57.1059C119.069 47.5299 119.069 37.9215 119.069 28.3455C119.069 27.891 119.069 27.4366 119.069 26.8523C120.177 26.8523 121.165 26.8198 122.153 26.8523C122.931 26.8848 123.32 26.6575 123.26 25.7162C123.201 24.6774 123.201 23.6387 123.26 22.5999C123.32 21.7235 122.991 21.5287 122.242 21.5287C118.47 21.5612 114.727 21.5287 110.955 21.5612C110.685 21.5612 110.386 21.6261 110.057 21.6585C110.057 23.1517 110.086 24.5476 110.057 25.9434C110.027 26.6575 110.296 26.8848 110.925 26.8523C111.943 26.8198 112.991 26.8523 114.128 26.8523ZM22.7787 58.4693C24.126 58.4693 25.2937 58.4043 26.4614 58.5017C27.3896 58.5666 27.689 58.2745 27.689 57.2033C27.659 51.7823 27.7189 46.3289 27.659 40.9079C27.659 39.9341 28.0183 39.6744 28.7669 39.577C29.7549 39.4471 30.713 39.2848 31.7011 39.0901C31.9705 39.0252 32.3897 38.733 32.4196 38.5382C32.4795 36.8827 32.4496 35.1948 32.4496 33.4419C27.7489 34.2534 23.1978 35.0649 18.6768 35.8764C18.4672 35.9089 18.1378 36.266 18.1378 36.4932C18.0779 38.0838 18.1079 39.6744 18.1079 41.4273C19.7247 41.1676 21.2217 40.9403 22.8086 40.6807C22.7787 46.5886 22.7787 52.4315 22.7787 58.4693ZM191.616 31.7214C191.586 32.2733 191.556 32.6303 191.556 33.0199C191.556 35.7141 191.556 38.3759 191.556 41.0702C191.556 46.4587 191.556 51.8797 191.556 57.2682C191.556 57.8525 191.466 58.4368 192.304 58.4368C195.748 58.4368 199.161 58.4693 202.604 58.4368C202.844 58.4368 203.263 57.9823 203.263 57.7227C203.353 56.6839 203.293 55.6452 203.293 54.6064C203.293 53.2106 203.293 53.2106 201.975 53.2106C200.179 53.2106 198.352 53.2106 196.436 53.2106C196.436 50.6137 196.436 48.1467 196.436 45.6796C196.436 41.622 196.436 37.5969 196.466 33.5393C196.466 33.0523 196.526 32.5005 195.867 32.4031C194.49 32.2084 193.143 31.9811 191.616 31.7214ZM212.035 53.2106C212.035 52.5938 212.035 52.1718 212.035 51.7498C212.035 46.4912 212.035 41.2325 212.005 35.9738C212.005 35.5843 211.826 34.9351 211.646 34.9026C210.179 34.578 208.712 34.3508 207.245 34.0911C207.185 34.3508 207.125 34.4806 207.125 34.578C207.125 42.2712 207.125 49.9645 207.095 57.6577C207.095 58.4693 207.544 58.4693 208.083 58.4693C211.377 58.4693 214.7 58.4693 217.994 58.4693C218.233 58.4693 218.503 58.4043 218.802 58.3394C218.802 56.9761 218.742 55.6776 218.832 54.4116C218.892 53.4703 218.622 53.1457 217.724 53.1781C215.868 53.243 214.041 53.2106 212.035 53.2106ZM161.914 38.5058C161.914 40.3236 161.884 41.9142 161.944 43.5372C161.944 43.7969 162.333 44.1864 162.603 44.2514C164.22 44.6409 165.837 44.9006 167.453 45.2577C168.022 45.3875 168.232 45.1927 168.232 44.576C168.232 43.2126 168.262 41.8493 168.202 40.5184C168.202 40.2587 167.932 39.8042 167.723 39.7393C165.837 39.2848 163.98 38.9278 161.914 38.5058Z" fill="#FC4236"/>
<path d="M96.9126 29.092C96.9126 32.0135 96.9126 34.8376 96.9126 37.7916C98.2899 37.5643 99.5773 37.3371 100.865 37.0774C101.044 37.045 101.254 36.558 101.254 36.2659C101.284 34.9025 101.284 33.5392 101.284 32.2083C101.284 30.9423 101.284 29.6763 101.284 28.248C99.727 28.5402 98.3498 28.7999 96.9126 29.092Z" fill="#FC4236"/>
<path d="M177.544 34.9351C177.544 36.9152 177.514 38.6681 177.574 40.421C177.574 40.6482 177.843 41.0377 178.053 41.0702C179.31 41.3623 180.568 41.5571 181.945 41.8168C181.945 39.8691 181.945 38.0188 181.915 36.201C181.915 36.0063 181.646 35.6817 181.466 35.6492C180.238 35.3895 178.981 35.1947 177.544 34.9351Z" fill="#FC4236"/>
<path d="M96.9126 29.092C98.3498 28.7999 99.727 28.5402 101.284 28.248C101.284 29.6763 101.284 30.9423 101.284 32.2083C101.284 33.5716 101.314 34.935 101.254 36.2659C101.254 36.558 101.044 37.045 100.865 37.0774C99.5773 37.3696 98.2899 37.5643 96.9126 37.7916C96.9126 34.8052 96.9126 32.0135 96.9126 29.092Z" fill="#FC4236"/>
<path d="M177.543 34.9351C178.951 35.1623 180.238 35.357 181.466 35.6167C181.645 35.6492 181.915 35.9738 181.915 36.1686C181.945 38.0188 181.945 39.8367 181.945 41.7843C180.538 41.5246 179.28 41.3299 178.052 41.0377C177.843 41.0053 177.573 40.6157 177.573 40.3885C177.543 38.6681 177.543 36.9476 177.543 34.9351Z" fill="#FC4236"/>
</svg>
